<?xml version="1.0" standalone="no"?>
<!DOCTYPE svg PUBLIC "-//W3C//DTD SVG 20010904//EN"
 "http://www.w3.org/TR/2001/REC-SVG-20010904/DTD/svg10.dtd">
<svg version="1.0" xmlns="http://www.w3.org/2000/svg"
 width="320.000000pt" height="320.000000pt" viewBox="0 0 320.000000 320.000000"
 preserveAspectRatio="xMidYMid meet">
<metadata>
Created by potrace 1.14, written by Peter Selinger 2001-2017
</metadata>
<g transform="translate(0.000000,320.000000) scale(0.100000,-0.100000)"
fill="#000000" stroke="none">
<path d="M835 3070 c-4 -6 -11 -8 -16 -5 -13 9 -50 -5 -44 -16 4 -5 2 -9 -2
-9 -5 0 -29 -19 -53 -42 -25 -24 -48 -42 -52 -40 -5 1 -8 -4 -8 -12 0 -8 -9
-18 -20 -21 -11 -4 -17 -11 -14 -17 5 -8 1 -9 -10 -5 -9 4 -15 3 -12 -2 8 -13
-21 -34 -35 -25 -7 4 -10 3 -6 -2 3 -5 -1 -18 -9 -29 -8 -10 -14 -15 -14 -11
0 4 -11 -4 -24 -18 -13 -15 -29 -26 -35 -26 -7 0 -10 -4 -7 -9 6 -9 -22 -26
-36 -23 -4 1 -4 -6 -1 -16 3 -9 3 -14 -2 -10 -4 4 -16 -4 -27 -17 -11 -14 -24
-23 -29 -19 -5 3 -8 2 -7 -3 2 -4 -7 -18 -19 -30 -13 -13 -23 -20 -23 -15 -1
4 -7 -4 -15 -18 -8 -14 -14 -21 -15 -16 0 12 -40 -34 -40 -47 0 -6 -3 -7 -7
-4 -3 4 -21 -8 -39 -27 -18 -18 -39 -36 -48 -39 -9 -4 -16 -11 -16 -17 0 -6
-4 -8 -10 -5 -5 3 -10 -1 -10 -9 0 -9 -4 -16 -10 -16 -5 0 -10 -7 -10 -15 0
-8 6 -15 13 -15 8 0 8 -3 1 -8 -5 -4 -10 -34 -9 -67 1 -33 -3 -66 -9 -74 -8
-10 -8 -13 -1 -9 14 8 14 -410 1 -431 -6 -9 -5 -12 1 -8 6 4 13 0 17 -8 3 -8
1 -17 -4 -20 -5 -3 -6 -13 -3 -22 5 -11 3 -14 -6 -8 -10 5 -11 3 -4 -11 5 -11
8 -110 8 -221 -1 -142 1 -203 9 -203 7 0 6 -4 -2 -8 -7 -5 -11 -19 -9 -33 2
-13 1 -36 -4 -52 -4 -15 -5 -25 -1 -23 4 2 7 -56 7 -130 0 -74 -4 -134 -8
-134 -5 0 -5 -5 -1 -12 10 -16 11 -468 1 -468 -5 0 -5 -5 -1 -12 10 -16 11
-224 2 -261 -5 -19 -3 -25 4 -21 7 5 9 2 6 -8 -4 -8 -1 -15 5 -16 7 0 24 -3
40 -5 15 -2 27 0 27 6 0 5 7 4 15 -3 12 -10 15 -10 15 0 0 10 3 10 15 0 10 -8
15 -9 15 -2 0 6 6 9 12 7 28 -11 98 -11 98 -1 0 6 5 4 10 -4 8 -12 11 -13 19
-1 7 11 9 11 14 0 3 -8 6 -9 6 -3 1 8 12 9 38 3 24 -5 40 -4 44 3 4 7 8 6 12
-3 3 -9 6 -9 6 -2 1 8 10 9 31 3 17 -5 30 -5 30 0 0 5 6 7 13 5 21 -9 107 -11
107 -3 0 4 6 5 13 3 21 -9 107 -11 107 -3 0 4 6 5 13 3 22 -9 107 -11 107 -3
0 4 11 3 25 -2 18 -7 25 -6 25 3 0 7 3 8 8 2 4 -5 21 -10 37 -10 17 0 33 5 37
10 5 7 8 7 8 0 0 -5 23 -10 50 -10 28 0 50 3 50 7 0 4 6 5 13 3 21 -9 107 -11
107 -3 0 4 6 5 13 3 22 -9 107 -11 107 -3 0 4 11 3 25 -2 18 -7 25 -6 25 3 0
7 3 8 8 2 4 -5 21 -10 37 -10 17 0 33 5 37 10 5 7 8 7 8 0 0 -5 23 -10 50 -10
28 0 50 3 50 7 0 4 6 5 13 3 21 -9 107 -11 107 -3 0 4 6 5 13 3 20 -8 107 -11
107 -4 0 4 16 3 35 -1 24 -5 35 -4 35 4 0 6 5 4 10 -4 8 -12 11 -13 19 -1 7
11 9 11 14 0 3 -8 6 -9 6 -3 1 8 12 9 38 3 24 -5 40 -4 44 3 4 7 8 6 12 -3 3
-9 6 -9 6 -2 1 8 10 9 31 3 17 -5 30 -5 30 0 0 4 15 5 33 1 17 -3 43 -6 57 -6
14 1 28 -4 32 -10 5 -7 8 -6 8 1 0 8 23 11 70 10 51 -2 71 2 75 12 3 7 10 10
17 6 7 -4 10 -4 6 1 -8 9 16 35 32 35 7 0 9 7 6 16 -3 8 -2 12 3 9 5 -3 17 5
25 17 9 12 16 18 16 13 0 -6 14 6 30 25 16 19 30 31 31 25 0 -5 4 0 9 13 5 12
17 22 25 22 10 0 13 5 9 12 -5 8 -2 9 10 5 11 -4 15 -3 11 4 -4 6 2 13 14 16
12 3 21 10 21 15 0 12 39 48 51 48 4 0 11 9 14 20 4 11 10 18 15 15 5 -3 14 4
20 15 6 11 15 18 21 15 5 -4 9 1 9 10 0 9 5 13 10 10 6 -3 10 1 10 9 0 9 4 16
9 16 5 0 29 20 55 44 25 25 46 42 46 39 0 -4 18 13 40 37 22 24 40 39 40 34 0
-5 5 -1 11 9 6 9 14 15 20 12 5 -4 6 2 2 11 -4 11 -2 15 4 11 6 -4 13 0 17 8
3 8 0 15 -6 15 -6 0 -7 5 -1 12 7 10 10 113 3 113 -1 0 -3 10 -4 22 -1 12 1
20 6 17 11 -7 10 3 -3 28 -6 11 -7 18 -2 15 5 -4 10 7 10 23 0 17 -4 30 -9 30
-5 0 -6 6 -1 12 10 17 10 47 1 76 -5 15 -4 21 2 17 13 -8 13 1 -1 27 -8 15 -8
19 0 14 6 -4 11 -3 11 3 0 5 -5 13 -11 17 -8 5 -8 9 1 14 9 6 9 12 0 30 -8 15
-8 20 -1 16 14 -9 14 0 0 26 -8 15 -8 19 0 14 14 -9 14 0 0 26 -8 15 -8 19 0
14 6 -4 11 -3 11 3 0 5 -5 13 -11 17 -8 5 -8 9 1 14 9 6 9 12 0 30 -7 12 -8
20 -3 17 5 -3 8 22 7 56 -1 34 -3 62 -4 62 -1 0 -3 10 -4 22 -1 12 1 20 6 17
11 -7 10 3 -3 28 -6 11 -7 18 -2 15 5 -4 10 7 10 23 0 17 -4 30 -9 30 -5 0 -6
6 -1 12 10 17 10 47 1 76 -5 15 -4 21 2 17 13 -8 13 1 -1 27 -8 15 -8 19 0 14
6 -4 11 -3 11 3 0 5 -5 13 -11 17 -8 5 -8 9 1 14 9 6 9 12 0 30 -8 15 -8 20
-1 16 14 -9 14 0 0 26 -8 15 -8 19 0 14 14 -9 14 0 0 26 -8 15 -8 19 0 14 6
-4 11 -3 11 3 0 5 -5 13 -11 17 -8 5 -8 9 1 14 9 6 9 12 0 30 -7 12 -8 20 -3
17 5 -3 8 22 7 56 -1 34 -3 62 -4 62 -1 0 -3 10 -4 22 -1 12 1 20 6 17 11 -7
10 3 -3 28 -6 11 -7 18 -2 15 5 -4 10 7 10 23 0 17 -4 30 -9 30 -5 0 -6 6 -1
12 10 17 10 47 1 76 -5 15 -4 21 2 17 13 -8 13 1 -1 27 -8 15 -8 19 0 14 6 -4
11 -3 11 3 0 5 -5 13 -11 17 -8 5 -8 9 1 14 9 6 9 12 0 30 -8 15 -8 20 -1 16
14 -9 14 0 0 26 -8 15 -8 19 0 14 14 -9 14 0 0 26 -8 15 -8 19 0 14 6 -4 11
-3 11 3 0 5 -5 13 -11 17 -8 5 -8 9 1 14 9 6 9 12 0 30 -7 12 -8 20 -3 17 5
-3 8 22 7 56 -1 34 -3 62 -4 62 -1 0 -3 10 -4 22 -1 12 1 20 6 17 11 -7 10 3
-3 28 -6 11 -7 18 -2 15 5 -4 10 7 10 23 0 17 -4 30 -9 30 -5 0 -6 5 -2 12 4
7 8 33 8 58 l0 45 -675 2 c-371 2 -869 4 -1107 5 -237 2 -432 0 -432 -4 0 -8
-21 -5 -37 5 -6 4 -14 3 -18 -3z m78 -155 c5 -7 10 -7 15 0 10 15 32 17 46 5
7 -5 15 -7 19 -4 9 10 57 12 63 2 3 -4 10 -6 15 -2 17 10 59 12 65 3 3 -5 13
-6 22 -1 20 9 43 9 57 0 6 -4 17 -3 25 2 8 5 22 5 32 -1 10 -5 18 -6 18 -1 0
11 38 13 46 1 3 -6 12 -5 21 3 19 15 23 15 34 -4 6 -8 12 -9 17 -3 10 15 32
17 46 5 7 -5 16 -6 20 -2 11 10 30 9 39 -3 4 -7 10 -7 15 0 10 15 32 17 46 5
7 -5 16 -6 20 -2 11 10 30 9 39 -3 4 -7 10 -7 15 0 10 15 32 17 46 5 7 -5 16
-6 20 -2 11 10 30 9 39 -3 4 -7 10 -7 15 0 10 15 32 17 46 5 7 -5 16 -6 20 -2
11 10 30 9 39 -3 4 -7 10 -7 15 0 10 15 32 17 46 5 7 -5 15 -7 19 -4 9 10 57
12 63 2 3 -4 10 -6 15 -2 17 10 59 12 65 3 3 -5 13 -6 22 -1 20 9 43 9 57 0 6
-4 17 -3 25 2 8 5 22 5 32 -1 10 -5 18 -6 18 -1 0 11 38 13 45 1 4 -5 12 -6
18 -2 17 11 31 10 40 -2 4 -7 10 -7 15 0 10 15 32 17 46 5 7 -5 16 -6 20 -2
11 10 30 9 39 -3 4 -7 10 -7 15 0 10 15 32 17 46 5 7 -5 16 -6 20 -2 11 10 30
9 39 -3 4 -7 10 -7 15 0 10 15 32 17 46 5 7 -5 16 -7 20 -3 11 11 36 12 36 1
0 -6 6 -5 15 2 12 10 15 10 15 -1 0 -9 3 -10 8 -3 9 14 42 14 42 0 0 -6 5 -4
10 4 7 11 10 12 10 2 0 -8 -13 -27 -30 -44 -16 -16 -30 -27 -30 -24 0 3 -16
-12 -36 -32 -20 -20 -41 -36 -46 -34 -5 1 -8 -1 -5 -5 2 -5 -4 -16 -15 -25
-10 -10 -18 -15 -18 -11 0 4 -11 -8 -25 -27 -14 -19 -25 -30 -25 -25 0 4 -9
-2 -20 -15 -11 -13 -20 -28 -20 -33 0 -6 -2 -8 -6 -5 -3 3 -26 -15 -52 -41
-26 -25 -50 -45 -54 -43 -5 1 -8 -5 -8 -13 0 -8 -6 -15 -14 -15 -8 0 -16 -7
-20 -15 -3 -8 -13 -15 -21 -15 -10 0 -13 -5 -9 -12 5 -7 3 -8 -6 -3 -17 10
-450 13 -457 2 -2 -4 -9 -4 -15 0 -16 9 -139 10 -145 0 -2 -4 -9 -4 -15 0 -16
9 -139 10 -145 0 -2 -4 -9 -4 -15 0 -16 9 -139 10 -145 0 -2 -4 -10 -4 -16 0
-17 10 -909 10 -931 0 -13 -6 -16 -6 -11 2 5 8 -1 10 -19 5 -19 -4 -26 -2 -26
8 0 16 50 64 63 60 4 -1 7 4 7 12 0 8 5 18 12 22 7 5 8 3 3 -7 -8 -12 -6 -12
8 0 9 7 15 17 12 21 -3 5 4 11 15 15 11 3 20 11 20 16 0 6 4 7 10 4 6 -4 7 1
3 11 -4 12 -3 15 5 10 7 -4 15 -1 18 8 3 8 14 18 25 21 11 4 17 11 14 16 -4 5
-2 9 3 9 10 0 89 68 154 133 21 20 38 34 38 31 0 -3 10 5 22 19 22 24 57 30
71 12z m2041 -192 c-1 -51 4 -94 10 -102 7 -10 8 -13 0 -8 -13 8 -13 -131 0
-152 6 -9 5 -12 0 -8 -13 7 -12 -453 0 -472 6 -9 5 -12 -1 -8 -12 8 -12 -132
1 -152 6 -9 5 -12 0 -8 -13 7 -12 -453 0 -472 6 -9 5 -12 -1 -8 -12 8 -12
-132 1 -152 6 -9 5 -12 -1 -8 -6 4 -9 -57 -8 -166 1 -126 -2 -177 -12 -192 -7
-11 -13 -17 -13 -13 0 3 -22 -16 -50 -44 -27 -28 -50 -46 -51 -42 0 5 -4 -1
-9 -13 -5 -13 -17 -23 -25 -23 -10 0 -13 -5 -9 -12 5 -8 2 -9 -10 -5 -10 4
-15 3 -11 -3 3 -5 -4 -14 -15 -20 -11 -6 -18 -15 -15 -21 4 -5 2 -8 -3 -7 -6
2 -18 -5 -29 -15 -77 -74 -104 -97 -114 -97 -5 0 -8 -4 -4 -10 3 -5 -7 -17
-22 -27 -15 -10 -33 -25 -40 -34 -26 -35 -62 -28 -40 8 5 7 4 13 -2 13 -10 0
-9 46 2 56 4 4 3 12 -1 18 -11 18 -10 66 2 66 7 0 7 3 1 8 -14 10 -17 32 -5
32 5 0 10 5 10 11 0 5 -3 8 -7 6 -5 -3 -8 12 -8 34 -1 21 4 39 10 39 5 0 4 4
-3 9 -17 11 -17 21 0 32 7 5 8 9 3 9 -6 0 -11 9 -12 20 -1 13 2 18 9 14 7 -5
8 -2 3 7 -13 20 -14 52 -3 67 7 8 7 12 -1 12 -13 0 -10 22 4 32 7 5 6 8 0 8
-6 0 -11 9 -12 20 -1 13 2 18 9 14 7 -5 8 -2 3 7 -13 20 -13 69 -1 69 6 0 5 4
-2 9 -8 4 -14 12 -14 16 0 4 6 12 14 16 7 5 8 9 3 9 -6 0 -11 9 -12 20 -1 13
2 18 9 14 7 -5 8 -2 3 7 -13 20 -13 69 -1 69 6 0 5 4 -2 9 -8 4 -14 12 -14 16
0 4 6 12 14 16 7 5 8 9 3 9 -6 0 -11 9 -12 20 -1 13 2 18 9 14 7 -5 8 -2 3 7
-13 20 -13 69 -1 69 6 0 5 4 -2 9 -17 11 -17 21 0 32 7 5 8 9 3 9 -6 0 -11 9
-12 20 -1 13 2 18 9 14 7 -5 8 -2 3 6 -13 20 -14 70 -1 70 7 0 6 4 -2 9 -17
11 -17 21 0 32 7 5 8 9 3 9 -6 0 -11 9 -12 20 -1 13 2 18 9 14 7 -5 8 -2 3 6
-13 20 -14 70 -1 70 7 0 6 4 -2 9 -8 4 -14 12 -14 16 0 4 6 12 14 16 7 5 8 9
3 9 -6 0 -11 9 -12 20 -1 13 2 18 9 14 7 -5 8 -2 3 6 -13 20 -14 70 -1 70 7 0
6 4 -2 9 -17 11 -17 21 0 32 7 5 8 9 3 9 -6 0 -11 9 -12 20 -1 13 2 18 9 14 7
-5 8 -2 3 6 -13 20 -14 70 -1 70 7 0 6 4 -2 9 -8 4 -14 12 -14 16 0 4 6 12 14
16 7 5 8 9 3 9 -6 0 -11 9 -12 20 -1 13 2 18 9 14 7 -5 8 -2 3 6 -13 20 -14
70 -1 70 7 0 6 4 -2 9 -8 4 -14 12 -14 16 0 4 6 12 14 16 7 5 8 9 3 9 -6 0
-11 9 -12 20 -1 13 2 18 9 14 7 -5 8 -2 3 6 -13 20 -14 70 -1 70 7 0 7 3 1 8
-13 9 -15 52 -3 52 5 0 7 3 5 8 -3 7 29 42 48 52 6 3 9 8 7 13 -1 4 3 7 9 7
13 0 74 62 71 73 -1 4 3 7 8 7 6 0 37 27 70 60 33 33 64 60 70 60 6 0 8 5 5
10 -3 6 -1 10 5 10 6 0 25 16 44 35 18 19 37 31 41 27 5 -4 5 1 2 11 -4 11 -3
16 3 12 6 -3 13 1 16 10 4 10 13 14 22 10 9 -3 14 -3 10 0 -3 4 1 15 10 26 23
27 27 12 26 -88z m-2452 -388 c22 -1 38 3 38 9 0 7 3 7 8 1 9 -13 145 -14 154
0 5 6 8 6 8 0 0 -6 28 -10 65 -10 37 0 65 4 65 10 0 6 4 4 9 -4 7 -10 13 -11
31 -1 12 7 20 8 17 3 -3 -5 39 -8 93 -8 63 0 96 4 92 10 -3 6 0 5 9 -1 8 -6
29 -9 47 -7 24 2 31 -1 27 -10 -4 -6 1 -3 9 7 9 11 16 16 16 10 0 -5 31 -9 69
-9 45 -1 68 3 64 10 -3 5 0 5 7 -2 9 -9 19 -9 33 -2 11 6 17 7 14 2 -3 -5 39
-8 93 -8 56 0 96 4 92 9 -3 5 1 6 8 1 22 -14 81 -15 73 -1 -4 7 -2 7 7 -1 9
-9 19 -9 33 -2 11 7 17 7 13 1 -3 -6 12 -9 39 -8 25 0 45 5 45 11 0 7 3 7 8 0
10 -14 103 -16 95 -1 -4 7 -1 6 7 -1 9 -9 19 -9 33 -2 11 7 17 7 13 1 -7 -11
135 -8 155 3 7 5 10 4 6 -2 -7 -10 182 -11 200 0 5 4 15 -5 21 -18 8 -16 8
-25 1 -25 -6 0 -6 -7 1 -20 8 -14 8 -20 0 -20 -8 0 -8 -6 0 -20 8 -14 8 -20 0
-20 -8 0 -8 -6 0 -20 6 -11 7 -20 3 -20 -10 0 -10 -41 1 -58 4 -7 2 -12 -5
-12 -8 0 -8 -4 1 -15 10 -12 10 -15 0 -15 -10 0 -10 -3 0 -15 9 -11 9 -15 1
-15 -7 0 -9 -5 -5 -12 11 -17 11 -58 1 -58 -4 0 -3 -9 3 -20 8 -14 8 -20 0
-20 -8 0 -8 -6 0 -20 8 -14 8 -20 0 -20 -8 0 -8 -6 0 -20 6 -11 7 -20 3 -20
-10 0 -10 -41 1 -58 4 -7 2 -12 -5 -12 -8 0 -8 -4 1 -15 10 -12 10 -15 0 -15
-10 0 -10 -3 0 -15 9 -11 9 -15 1 -15 -7 0 -9 -5 -5 -12 11 -17 11 -58 1 -58
-4 0 -3 -9 3 -20 8 -14 8 -20 0 -20 -8 0 -8 -6 0 -20 8 -14 8 -20 0 -20 -8 0
-8 -6 0 -20 6 -11 7 -20 3 -20 -10 0 -10 -41 1 -58 4 -7 2 -12 -5 -12 -8 0 -8
-4 1 -15 10 -12 10 -15 0 -15 -10 0 -10 -3 0 -15 9 -11 9 -15 1 -15 -7 0 -9
-5 -5 -12 11 -17 11 -58 1 -58 -4 0 -3 -9 3 -20 8 -14 8 -20 0 -20 -8 0 -8 -6
0 -20 8 -14 8 -20 0 -20 -8 0 -8 -6 0 -20 6 -11 7 -20 3 -20 -10 0 -10 -41 1
-58 4 -7 2 -12 -5 -12 -8 0 -8 -4 1 -15 10 -12 10 -15 0 -15 -10 0 -10 -3 0
-15 9 -11 9 -15 1 -15 -7 0 -9 -5 -5 -12 11 -17 11 -58 1 -58 -4 0 -3 -9 3
-20 8 -14 8 -20 0 -20 -8 0 -8 -6 0 -20 8 -14 8 -20 0 -20 -8 0 -8 -6 0 -20 6
-11 7 -20 3 -20 -10 0 -10 -41 1 -58 4 -7 2 -12 -5 -12 -8 0 -8 -4 1 -15 10
-12 10 -15 0 -15 -10 0 -10 -3 0 -15 9 -11 9 -15 1 -15 -7 0 -9 -5 -5 -12 11
-17 11 -58 1 -58 -4 0 -3 -9 3 -20 6 -11 7 -20 2 -20 -10 0 -9 -36 1 -46 3 -4
2 -16 -4 -27 -8 -15 -8 -18 1 -12 9 6 9 2 1 -14 -9 -16 -9 -21 0 -21 8 0 8 -4
-1 -15 -8 -10 -9 -15 -1 -15 7 0 8 -8 2 -23 -5 -13 -5 -30 -1 -37 5 -8 6 -19
2 -24 -9 -15 -10 -46 -2 -46 7 0 4 -54 -4 -76 -2 -6 -23 -11 -45 -11 -27 0
-38 3 -34 11 4 6 -1 5 -10 -3 -14 -11 -20 -11 -34 0 -9 8 -14 9 -10 2 5 -8 -9
-11 -53 -9 -32 1 -62 5 -66 9 -4 3 -12 3 -18 0 -17 -11 -196 -11 -189 0 3 6 1
7 -6 3 -22 -14 -83 -17 -75 -5 4 8 3 9 -5 5 -22 -14 -83 -17 -75 -5 4 8 3 9
-5 5 -21 -13 -83 -17 -75 -5 5 8 1 8 -14 0 -14 -7 -23 -8 -27 -1 -4 6 -12 7
-18 3 -17 -11 -107 -11 -107 0 0 5 -7 3 -17 -4 -17 -15 -19 -14 -42 4 -9 7
-12 8 -8 1 4 -7 -5 -11 -23 -11 -17 0 -30 5 -30 10 0 6 -5 5 -12 -1 -17 -13
-30 -13 -47 1 -9 7 -12 8 -8 1 4 -7 -5 -11 -23 -11 -17 0 -30 5 -30 10 0 5 -7
3 -17 -4 -20 -17 -16 -17 -38 1 -11 8 -16 10 -12 4 4 -7 -5 -11 -23 -11 -17 0
-30 4 -30 9 0 5 -6 6 -12 1 -20 -12 -41 -13 -55 -1 -7 6 -13 6 -13 1 0 -11
-401 -10 -419 2 -9 5 -12 4 -8 -2 4 -5 -6 -10 -23 -10 -16 0 -27 5 -23 10 4 8
-9 2 -38 -15 -3 -1 -14 4 -24 12 -11 8 -16 10 -12 4 4 -7 -5 -11 -23 -11 -17
0 -27 5 -23 10 3 6 1 7 -5 3 -22 -13 -55 -16 -69 -5 -7 7 -13 7 -13 2 0 -5
-15 -9 -34 -9 -19 0 -33 4 -30 7 2 4 0 10 -6 14 -6 4 -7 12 0 24 6 12 5 22 -2
29 -9 9 -9 12 2 12 11 0 11 3 2 12 -7 7 -8 17 -1 30 7 13 6 18 -2 18 -9 0 -9
3 0 14 8 10 9 16 1 21 -6 4 -7 12 0 24 6 12 5 22 -2 29 -9 9 -9 12 2 12 11 0
11 3 2 12 -7 7 -8 17 -1 30 7 13 6 18 -2 18 -8 0 -8 4 -2 13 6 6 9 21 7 32 -7
35 -7 49 1 67 4 10 3 18 -2 18 -5 0 -10 7 -10 15 0 8 3 15 6 15 3 0 6 20 6 45
0 25 -4 45 -8 45 -4 0 -4 8 1 18 5 9 6 26 2 37 -4 11 -3 28 2 39 6 10 6 21 2
25 -12 8 -16 31 -6 31 4 0 7 20 7 45 0 25 -4 45 -8 45 -4 0 -4 8 1 18 5 9 6
26 2 37 -4 11 -3 28 2 39 6 10 6 21 2 25 -13 9 -16 31 -4 31 6 0 6 9 1 23 -5
13 -5 30 -1 37 5 9 4 20 -2 27 -8 10 -7 13 3 13 10 0 10 3 1 12 -7 7 -8 17 -1
30 7 13 6 18 -2 18 -9 0 -9 3 0 14 8 10 9 16 1 21 -6 4 -7 12 -1 23 6 10 6 23
0 34 -6 11 -6 18 0 18 5 0 7 18 5 41 -3 29 -1 38 8 33 7 -5 8 -3 3 6 -13 22
-16 122 -3 114 7 -5 8 -2 3 7 -12 18 -13 199 -1 192 5 -3 4 3 -2 13 -7 12 -7
25 -1 36 5 10 6 18 2 18 -12 0 -10 80 2 80 5 0 3 5 -5 10 -12 8 -12 10 -1 10
11 0 11 3 1 15 -10 12 -10 15 1 15 9 0 10 3 4 8 -12 8 -12 52 -1 70 4 6 4 12
-1 12 -9 0 -8 97 1 127 6 18 14 20 91 19 51 -2 82 2 78 7 -4 6 -1 7 7 2 8 -5
31 -9 52 -10z"/>
<path d="M625 1979 c-4 -5 -13 -8 -21 -5 -8 3 -14 -1 -14 -10 0 -8 -4 -13 -8
-10 -10 6 -10 -37 0 -44 4 -3 3 -19 -1 -35 -5 -17 -10 -23 -10 -15 -1 9 -4 11
-9 5 -9 -13 -52 -18 -52 -6 0 5 -11 4 -25 -2 -14 -7 -23 -18 -20 -24 2 -7 -1
-13 -8 -13 -8 0 -8 -3 -2 -8 7 -4 10 -70 10 -177 -1 -107 3 -175 9 -184 8 -11
8 -13 0 -8 -14 8 -13 -90 0 -112 6 -9 5 -12 -1 -8 -13 8 -12 -91 1 -112 6 -9
5 -12 -1 -8 -13 8 -12 -91 1 -112 6 -9 5 -12 0 -8 -6 3 -10 -41 -10 -113 0
-78 4 -116 11 -112 6 4 6 1 -1 -9 -17 -23 -11 -44 14 -43 12 1 22 -3 22 -7 0
-5 5 -9 11 -9 5 0 7 6 3 13 -5 7 -1 6 10 -2 12 -10 16 -24 14 -43 -3 -20 1
-32 11 -37 24 -12 101 -10 101 3 0 6 4 5 9 -2 7 -11 9 -11 14 1 3 7 2 20 -3
27 -4 7 -4 25 0 40 4 15 4 33 0 40 -4 7 -4 25 0 40 4 15 4 33 0 40 -4 7 -4 25
0 40 4 15 4 33 0 40 -4 7 -4 25 0 40 4 15 4 33 0 40 -4 6 -4 27 0 45 5 21 3
38 -3 44 -12 12 0 15 37 11 12 -1 16 2 11 11 -6 9 -4 10 6 3 21 -13 173 -14
181 0 5 7 8 7 8 0 0 -6 31 -10 85 -10 51 1 85 -3 85 -9 0 -7 3 -7 8 0 4 6 13
10 21 10 8 0 18 12 22 28 4 15 4 27 -1 27 -11 0 1 42 17 58 7 8 13 9 13 3 0
-6 7 -8 16 -4 9 3 20 0 25 -8 6 -10 9 -10 9 -2 0 7 7 10 17 6 11 -4 14 -3 9 5
-4 7 -2 12 3 12 6 0 9 10 7 23 -2 12 0 30 5 39 5 10 5 19 0 22 -11 7 -9 25 3
45 6 10 5 12 -3 7 -8 -5 -10 0 -7 18 3 14 7 30 10 35 4 5 2 12 -3 15 -11 7 -9
25 3 45 6 10 5 12 -3 7 -8 -5 -10 0 -7 18 3 14 7 30 10 35 4 5 2 12 -3 15 -11
7 -9 25 3 45 6 10 5 12 -3 7 -8 -5 -10 0 -7 19 3 15 7 30 10 33 10 10 -16 43
-32 41 -54 -5 -61 0 -59 38 2 32 -2 39 -28 52 -16 8 -38 18 -49 23 -11 6 -16
6 -12 0 3 -5 -3 -12 -13 -15 -14 -3 -18 -1 -14 9 3 8 0 14 -7 14 -6 0 -8 5 -4
12 4 6 8 24 8 39 1 31 -24 45 -45 25 -9 -8 -10 -8 -5 2 5 8 0 12 -14 12 -12 0
-18 -4 -15 -10 9 -15 -2 -12 -19 6 -9 8 -16 11 -16 5 0 -7 -10 -9 -26 -5 -19
5 -25 4 -20 -5 10 -16 0 -14 -18 5 -9 8 -16 11 -16 5 0 -7 -10 -9 -26 -5 -19
5 -25 3 -20 -4 5 -8 2 -10 -8 -6 -9 3 -13 11 -9 18 4 6 0 5 -9 -2 -18 -14 -49
-13 -60 3 -5 6 -8 6 -8 -1 0 -13 -58 -13 -77 -1 -6 4 -15 2 -18 -4z m24 -144
c8 0 16 -6 19 -14 3 -9 0 -11 -8 -6 -10 6 -11 4 -4 -6 12 -20 14 -40 3 -33 -5
3 -9 1 -9 -4 0 -6 -7 -13 -16 -16 -10 -4 -13 -2 -8 6 5 7 2 9 -9 5 -18 -7 -32
19 -16 29 7 4 7 10 1 16 -13 13 8 39 23 30 6 -4 16 -7 24 -7z m141 -85 c0 5
13 5 30 0 17 -5 30 -5 30 0 0 5 13 5 30 0 17 -5 30 -6 30 -2 0 4 29 5 65 4 36
-2 63 -8 59 -13 -3 -5 0 -9 7 -9 8 0 8 -4 -1 -15 -8 -9 -9 -15 -2 -15 11 0 9
-31 -3 -49 -3 -5 -1 -12 4 -16 7 -3 7 -15 1 -29 -5 -13 -6 -27 -2 -30 10 -11
11 -36 1 -36 -6 0 -5 -9 2 -21 8 -16 8 -20 -1 -14 -9 6 -9 3 -1 -12 7 -14 7
-23 -1 -31 -9 -9 -9 -12 0 -12 9 0 10 -5 3 -18 -7 -13 -7 -22 0 -29 7 -7 -51
-9 -173 -8 -135 1 -182 5 -181 13 2 7 -2 12 -8 12 -8 0 -9 4 0 13 6 8 8 17 4
21 -9 9 -11 46 -3 46 4 0 7 7 7 15 0 8 -4 15 -9 15 -5 0 -4 8 1 19 6 10 7 21
4 25 -9 8 -11 46 -3 46 3 0 6 9 6 20 0 11 -4 20 -9 20 -5 0 -4 6 2 13 6 8 8
17 4 21 -4 4 -8 18 -9 31 -1 21 3 24 28 21 15 -2 28 0 28 5 0 4 14 4 30 -1 17
-5 30 -5 30 0z m315 -370 c-3 -5 1 -10 11 -10 14 0 15 -2 3 -17 -8 -10 -9 -14
-2 -10 8 5 11 1 10 -12 -1 -13 -7 -18 -19 -16 -10 2 -18 -1 -18 -7 0 -6 -7 -5
-17 3 -11 10 -14 10 -9 2 4 -7 2 -13 -4 -13 -6 0 -9 16 -7 37 2 30 7 39 27 44
14 4 26 7 28 8 2 1 0 -3 -3 -9z"/>
<path d="M1491 1984 c-1 -7 -8 -15 -17 -18 -8 -3 -12 -2 -9 4 4 6 -10 9 -36 6
-43 -4 -66 -23 -49 -40 14 -14 12 -28 -2 -20 -10 6 -10 5 -1 -7 10 -12 10 -18
1 -27 -7 -7 -8 -12 -2 -12 5 0 10 -16 10 -35 0 -19 -5 -35 -11 -35 -6 0 -7 -3
0 -8 13 -9 15 -62 3 -62 -5 0 -6 -6 -1 -12 14 -23 14 -50 1 -42 -10 5 -10 4
-1 -6 9 -9 9 -19 2 -33 -7 -12 -7 -17 -1 -13 5 3 12 -1 16 -9 3 -8 12 -12 21
-9 9 4 15 1 15 -7 0 -11 2 -11 10 1 7 12 12 10 29 -9 14 -16 18 -28 12 -35 -6
-7 -6 -17 -1 -26 6 -8 10 -11 10 -6 0 6 6 2 13 -8 8 -11 28 -18 52 -20 36 -2
39 -4 39 -31 0 -17 7 -36 15 -43 14 -12 14 -13 -3 -8 -17 6 -17 5 -5 -11 12
-15 12 -16 -3 -10 -11 4 -18 2 -18 -6 0 -9 -2 -9 -8 1 -5 6 -20 11 -34 10 -20
-2 -27 -9 -30 -30 -3 -15 0 -30 6 -32 8 -3 7 -5 0 -5 -7 -1 -10 -14 -8 -31 4
-31 -4 -38 -23 -19 -7 7 -13 8 -17 0 -4 -6 -15 -7 -29 -2 -23 9 -67 -12 -54
-25 4 -4 2 -13 -4 -20 -7 -8 -7 -14 1 -19 5 -3 10 -11 10 -16 0 -6 -6 -7 -12
-3 -10 6 -10 5 -1 -7 10 -12 10 -18 1 -27 -8 -8 -8 -12 -1 -12 13 0 12 -42 -2
-52 -7 -5 -6 -8 0 -8 6 0 11 -9 12 -20 1 -12 -3 -18 -9 -14 -6 4 -6 -2 1 -15
9 -16 9 -21 -1 -21 -8 0 -9 -3 -3 -8 13 -9 20 -46 7 -38 -10 6 -9 -24 1 -41 4
-6 3 -14 -3 -18 -6 -4 -7 -12 -3 -18 11 -18 13 -68 2 -62 -15 10 -10 0 11 -25
11 -13 20 -19 20 -13 0 10 45 12 55 2 3 -3 6 -24 7 -47 1 -23 3 -40 6 -38 2 3
15 1 28 -4 14 -6 24 -6 24 0 0 5 12 5 30 0 19 -5 28 -5 25 1 -4 5 0 12 8 15
16 6 17 20 4 41 -4 6 -3 14 3 18 7 4 6 13 -1 27 -8 16 -8 19 1 13 9 -6 9 -2 1
14 -8 14 -8 21 -1 21 8 0 8 6 0 20 -8 14 -8 20 0 20 7 0 8 6 0 19 -6 12 -6 22
-1 26 13 7 10 45 -4 45 -6 0 -7 3 0 8 14 10 17 32 4 32 -8 0 -8 4 0 14 9 10 9
16 1 21 -7 5 -8 11 -1 19 11 12 10 34 -2 52 -3 6 1 18 11 26 19 16 30 17 50 5
7 -5 12 -3 12 5 0 9 3 9 10 -2 7 -11 10 -11 10 -2 0 7 5 10 10 7 9 -5 14 9 8
18 -2 2 4 12 12 22 13 17 13 18 0 10 -13 -8 -13 -7 -1 8 9 11 10 17 2 17 -8 0
-7 6 1 21 9 13 20 19 36 16 12 -2 22 1 22 6 0 6 7 2 16 -9 8 -10 13 -13 9 -6
-10 20 23 14 42 -7 9 -11 21 -17 27 -13 18 11 36 11 36 1 0 -6 4 -8 9 -4 6 3
15 -4 21 -16 8 -14 8 -19 1 -15 -5 4 -1 -14 10 -39 11 -26 18 -52 16 -60 -3
-7 0 -18 6 -24 8 -8 7 -11 -4 -11 -12 0 -12 -2 1 -10 8 -5 11 -10 5 -10 -6 0
-10 -42 -10 -105 0 -63 4 -105 10 -105 6 0 5 -4 -1 -8 -15 -10 2 -56 17 -46 6
3 15 0 20 -7 7 -11 9 -11 9 -1 0 10 4 10 15 -2 9 -9 15 -21 14 -28 -4 -36 3
-56 21 -61 11 -3 20 -1 20 3 0 5 14 5 30 0 19 -5 30 -5 30 1 0 6 4 8 9 5 5 -3
12 2 16 12 10 22 12 62 5 62 -9 0 -6 32 4 48 4 6 3 12 -3 12 -10 0 -9 25 2 36
4 4 2 13 -4 20 -7 9 -7 19 1 35 7 12 8 19 3 16 -5 -3 -8 33 -6 86 5 138 5 144
-14 151 -7 3 -13 2 -13 -3 0 -4 -13 -6 -28 -3 -22 3 -29 9 -28 25 1 12 6 28
10 36 6 9 5 12 -1 8 -6 -4 -13 3 -16 14 -3 12 -10 18 -16 15 -5 -4 -13 -2 -16
4 -5 8 -11 8 -20 0 -10 -8 -15 -8 -20 0 -4 6 -13 9 -20 6 -17 -6 -26 29 -12
43 8 8 8 11 0 11 -10 0 -11 17 -4 60 1 3 6 -2 12 -10 8 -12 12 -12 16 -2 4 10
8 10 19 1 10 -8 14 -8 14 0 0 6 6 10 13 8 8 -1 13 12 14 41 0 23 2 45 3 50 1
4 2 11 1 16 -1 5 6 5 16 1 30 -13 77 -5 96 15 8 9 8 11 0 6 -13 -7 -13 31 0
51 4 6 1 14 -5 16 -10 4 -9 8 2 16 8 6 10 11 4 11 -12 0 -12 109 0 128 4 7 3
12 -3 12 -11 0 -9 39 3 58 4 7 3 12 -3 12 -6 0 -8 6 -5 14 3 8 -3 19 -15 26
-12 6 -21 7 -21 1 0 -5 -8 -8 -17 -6 -10 1 -17 8 -15 14 1 6 -2 11 -6 11 -5 0
-8 15 -7 34 1 23 -4 37 -18 45 -10 7 -16 8 -13 2 5 -7 -11 -10 -46 -8 l-53 3
0 -116 c0 -65 4 -118 10 -122 7 -5 7 -8 0 -8 -6 0 -9 -24 -8 -53 l1 -54 -46 1
c-26 1 -53 5 -61 10 -9 6 -12 5 -7 -2 3 -6 -1 -17 -9 -25 -10 -11 -11 -17 -3
-19 8 -3 8 -10 -2 -27 -7 -15 -8 -21 -1 -17 15 10 13 -5 -3 -27 -10 -13 -16
-15 -21 -7 -6 9 -10 9 -16 -1 -5 -8 -9 -9 -9 -3 0 7 -14 10 -35 7 -21 -2 -35
1 -35 7 0 6 -4 9 -9 5 -5 -3 -12 -1 -15 4 -3 5 -14 7 -24 4 -24 -6 -48 22 -34
40 7 8 7 18 2 27 -5 8 -6 18 -4 22 3 4 -2 5 -10 2 -11 -4 -16 0 -16 10 0 26
-1 30 -11 42 -5 6 -6 14 -2 18 12 12 11 60 -1 75 -7 10 -7 13 0 8 7 -4 10 11
10 43 -1 28 -4 50 -8 50 -5 0 -11 0 -14 -1 -4 0 -11 5 -15 13 -7 10 -9 10 -9
-2 0 -13 -1 -13 -10 0 -6 10 -10 11 -10 3 0 -7 -6 -13 -14 -13 -14 0 -28 57
-15 62 4 2 1 17 -6 33 -7 17 -14 25 -14 19z m509 -388 c0 6 7 11 15 11 8 0 15
-4 15 -9 0 -5 4 -7 8 -4 4 2 9 -6 10 -19 1 -16 -5 -25 -21 -30 -39 -13 -47
-13 -41 -4 3 5 1 9 -5 9 -5 0 -8 8 -6 18 2 9 4 24 4 32 1 13 2 13 11 0 5 -8
10 -10 10 -4z m-104 -107 c4 -8 9 -7 16 2 7 11 11 11 15 1 2 -6 9 -10 14 -6
10 6 -8 -42 -24 -63 -9 -13 -46 -14 -48 -1 -1 4 -2 12 -3 17 0 5 -4 12 -8 16
-7 8 12 45 24 45 4 0 10 -5 14 -11z m-190 -146 c1 -18 -2 -30 -7 -28 -4 3 -9
1 -11 -5 -5 -16 -53 3 -56 23 -2 9 2 17 8 17 5 0 10 5 10 11 0 5 -5 7 -12 3
-6 -4 -8 -3 -5 3 4 6 21 10 39 9 29 -1 33 -5 34 -33z m-146 -83 c20 12 32 -10
17 -29 -9 -11 -9 -13 0 -8 8 5 11 1 10 -12 0 -11 -4 -18 -7 -16 -4 2 -19 -3
-34 -11 -32 -16 -49 -19 -26 -4 8 5 10 10 5 10 -12 0 -19 56 -9 71 4 7 10 7
18 0 7 -6 17 -6 26 -1z"/>
</g>
</svg>
